HIERARCHY
ROOT Hips
{
	OFFSET 0.00000 0.00000 0.00000
	CHANNELS 6 Xposition Yposition Zposition Zrotation Yrotation Xrotation 
	JOINT LHipJoint
	{
		OFFSET 0 0 0
		CHANNELS 3 Zrotation Yrotation Xrotation
		JOINT LeftUpLeg
		{
			OFFSET 1.77779 -1.88989 0.48267
			CHANNELS 3 Zrotation Yrotation Xrotation
			JOINT LeftLeg
			{
				OFFSET 2.53442 -6.96327 0.00000
				CHANNELS 3 Zrotation Yrotation Xrotation
				JOINT LeftFoot
				{
					OFFSET 2.71068 -7.44755 0.00000
					CHANNELS 3 Zrotation Yrotation Xrotation
					JOINT LeftToeBase
					{
						OFFSET 0.17992 -0.49431 2.22524
						CHANNELS 3 Zrotation Yrotation Xrotation
						End Site
						{
							OFFSET 0.00000 -0.00000 1.14687
						}
					}
				}
			}
		}
	}
	JOINT RHipJoint
	{
		OFFSET 0 0 0
		CHANNELS 3 Zrotation Yrotation Xrotation
		JOINT RightUpLeg
		{
			OFFSET -1.58469 -1.88989 0.48267
			CHANNELS 3 Zrotation Yrotation Xrotation
			JOINT RightLeg
			{
				OFFSET -2.60386 -7.15404 0.00000
				CHANNELS 3 Zrotation Yrotation Xrotation
				JOINT RightFoot
				{
					OFFSET -2.73334 -7.50979 0.00000
					CHANNELS 3 Zrotation Yrotation Xrotation
					JOINT RightToeBase
					{
						OFFSET -0.25618 -0.70384 2.21822
						CHANNELS 3 Zrotation Yrotation Xrotation
						End Site
						{
							OFFSET -0.00000 -0.00000 1.16381
						}
					}
				}
			}
		}
	}
	JOINT LowerBack
	{
		OFFSET 0 0 0
		CHANNELS 3 Zrotation Yrotation Xrotation
		JOINT Spine
		{
			OFFSET 0.03410 2.01612 -0.22230
			CHANNELS 3 Zrotation Yrotation Xrotation
			JOINT Spine1
			{
				OFFSET 0.03465 2.03012 0.00937
				CHANNELS 3 Zrotation Yrotation Xrotation
				JOINT Neck
				{
					OFFSET 0 0 0
					CHANNELS 3 Zrotation Yrotation Xrotation
					JOINT Neck1
					{
						OFFSET -0.00219 1.70459 0.20857
						CHANNELS 3 Zrotation Yrotation Xrotation
						JOINT Head
						{
							OFFSET 0.02518 1.72339 -0.22179
							CHANNELS 3 Zrotation Yrotation Xrotation
							End Site
							{
								OFFSET 0.00282 1.74122 -0.09823
							}
						}
					}
				}
				JOINT LeftShoulder
				{
					OFFSET 0 0 0
					CHANNELS 3 Zrotation Yrotation Xrotation
					JOINT LeftArm
					{
						OFFSET 3.36358 1.00547 -0.37661
						CHANNELS 3 Zrotation Yrotation Xrotation
						JOINT LeftForeArm
						{
							OFFSET 5.06507 -0.00000 0.00000
							CHANNELS 3 Zrotation Yrotation Xrotation
							JOINT LeftHand
							{
								OFFSET 3.60196 -0.00000 0.00000
								CHANNELS 3 Zrotation Yrotation Xrotation
								JOINT LeftFingerBase
								{
									OFFSET 0 0 0
									CHANNELS 3 Zrotation Yrotation Xrotation
									JOINT LeftHandIndex1
									{
										OFFSET 0.45035 -0.00000 0.00000
										CHANNELS 3 Zrotation Yrotation Xrotation
										End Site
										{
											OFFSET 0.36308 -0.00000 0.00000
										}
									}
								}
								JOINT LThumb
								{
									OFFSET 0 0 0
									CHANNELS 3 Zrotation Yrotation Xrotation
									End Site
									{
										OFFSET 0.36862 -0.00000 0.36862
									}
								}
							}
						}
					}
				}
				JOINT RightShoulder
				{
					OFFSET 0 0 0
					CHANNELS 3 Zrotation Yrotation Xrotation
					JOINT RightArm
					{
						OFFSET -3.50159 0.80383 -0.71526
						CHANNELS 3 Zrotation Yrotation Xrotation
						JOINT RightForeArm
						{
							OFFSET -5.36394 -0.00000 0.00000
							CHANNELS 3 Zrotation Yrotation Xrotation
							JOINT RightHand
							{
								OFFSET -3.58035 -0.00000 0.00000
								CHANNELS 3 Zrotation Yrotation Xrotation
								JOINT RightFingerBase
								{
									OFFSET 0 0 0
									CHANNELS 3 Zrotation Yrotation Xrotation
									JOINT RightHandIndex1
									{
										OFFSET -0.66375 -0.00000 0.00000
										CHANNELS 3 Zrotation Yrotation Xrotation
										End Site
										{
											OFFSET -0.53513 -0.00000 0.00000
										}
									}
								}
								JOINT RThumb
								{
									OFFSET 0 0 0
									CHANNELS 3 Zrotation Yrotation Xrotation
									End Site
									{
										OFFSET -0.54330 -0.00000 0.54330
									}
								}
							}
						}
					}
				}
			}
		}
	}
}
MOTION
Frames: 14
Frame Time: .0083333
0.2107 16.9022 9.7730 -4.1459 -2.6734 2.5290 0.0000 0.0000 0.0000 -13.5789 -2.8336 -17.4741 20.9849 19.9767 92.8809 0.2291 -8.6903 15.9977 0.0186 0.8814 2.4224 0.0000 0.0000 0.0000 32.4174 12.2721 -23.9934 -8.1659 -16.2399 53.1579 -1.3384 -8.3728 -26.3359 -0.0422 1.3265 -3.6477 3.2324 -0.2476 16.3196 3.0408 0.5542 0.3291 1.3148 0.1990 -8.8305 -1.8624 -3.3070 -20.1052 1.7340 -4.2384 12.0705 0.3705 -1.9577 7.0440 -0.0000 0.0000 0.0000 -86.9281 14.8260 43.9930 115.1657 -57.4663 -81.6087 -0.0000 0.0000 -31.3993 25.9626 3.2393 1.5761 -7.1250 0.0000 -0.0000 -0.5304 33.5815 0.1485 -0.0000 0.0000 0.0000 88.1259 -10.9548 42.8989 -110.2422 58.3937 -77.4357 0.0000 -0.0000 -19.6601 -25.2753 35.0871 -15.1850 7.1250 -0.0000 -0.0000 4.2113 7.7707 4.7541
0.1877 16.9007 10.1919 -3.6609 -2.1078 2.5379 0.0000 0.0000 0.0000 -13.5647 -4.0460 -20.5906 21.5996 19.9385 94.6814 0.2197 -7.6701 14.7557 0.0366 1.2355 3.3971 0.0000 0.0000 0.0000 32.2100 11.6644 -22.5930 -8.2001 -16.2645 53.2803 -1.3998 -9.2427 -27.4083 -0.1441 2.4464 -6.7410 2.5810 -0.1022 16.4054 2.9468 0.6136 0.4896 1.5665 0.2543 -8.7077 -2.0150 -3.3969 -20.0007 2.0890 -4.3671 11.5305 0.5011 -1.9976 6.8645 -0.0000 0.0000 0.0000 -86.8063 15.4894 44.2884 114.8366 -57.5358 -81.3312 -0.0000 0.0000 -31.5632 26.4346 2.8742 1.4280 -7.1250 0.0000 -0.0000 -0.1357 33.1888 0.0393 -0.0000 0.0000 0.0000 87.9727 -8.7087 43.2206 -109.9980 58.4336 -77.2277 0.0000 -0.0000 -19.5243 -25.3023 35.1425 -15.2226 7.1250 -0.0000 -0.0000 4.2072 7.8340 4.7535
0.1739 16.8801 10.6049 -3.4116 -1.1906 2.7358 0.0000 0.0000 0.0000 -13.2912 -5.4821 -23.2070 22.0752 19.8964 96.0774 0.0963 -7.6067 12.7165 0.0011 -0.2124 -0.5836 0.0000 0.0000 0.0000 32.2255 10.7297 -21.4960 -8.1897 -16.2570 53.2432 -1.5173 -9.6116 -28.4956 -0.2205 3.0226 -8.3417 2.2663 -0.1234 16.4456 2.9500 0.5337 0.3871 1.7693 0.2290 -8.8441 -2.0637 -3.4615 -19.9746 2.1414 -4.4477 11.4305 0.5176 -2.0345 6.8316 -0.0000 -0.0000 0.0000 -86.7427 16.5309 44.7065 114.8348 -57.5362 -81.3297 -0.0000 0.0000 -31.4468 26.7503 3.0449 1.5337 -7.1250 0.0000 -0.0000 0.1181 33.3887 -0.0336 -0.0000 -0.0000 0.0000 87.8487 -7.2577 43.4246 -110.8503 58.2919 -77.9533 0.0000 -0.0000 -19.7328 -24.0234 34.7338 -14.2493 7.1250 -0.0000 -0.0000 4.8242 7.1031 5.4018
0.1685 16.8803 11.0134 -3.4770 0.1081 2.7586 0.0000 0.0000 0.0000 -12.6872 -7.2238 -25.7409 22.4114 19.8600 97.0663 0.0584 -7.0845 11.3611 0.0101 -0.6501 -1.7865 0.0000 0.0000 0.0000 32.6344 9.3831 -20.1453 -8.1073 -16.1976 52.9481 -1.6920 -9.8393 -29.8215 -0.2336 3.1104 -8.5863 2.5639 -0.3000 16.8228 2.9482 0.3802 0.2640 1.6415 0.1417 -9.1877 -1.8435 -3.5875 -20.0977 1.9263 -4.6430 11.5627 0.3867 -2.1362 6.8879 -0.0000 0.0000 0.0000 -86.4332 17.6074 45.2275 115.2590 -57.4463 -81.6874 -0.0000 0.0000 -31.6574 26.3977 3.4371 1.7045 -7.1250 0.0000 -0.0000 -0.1796 33.8158 0.0493 -0.0000 0.0000 0.0000 87.9455 -6.1777 43.4005 -112.6602 57.9680 -79.4905 0.0000 -0.0000 -20.1270 -22.9162 34.1232 -13.3413 7.1250 -0.0000 -0.0000 5.3226 6.2225 5.8925
0.1709 16.9045 11.4409 -3.4291 0.9005 2.8324 0.0000 0.0000 0.0000 -12.4082 -8.4780 -28.1125 22.5378 19.8449 97.4385 0.0147 -6.3105 9.3774 0.0085 -0.5954 -1.6362 0.0000 0.0000 0.0000 32.8459 8.3884 -18.4926 -7.9506 -16.0828 52.3846 -1.8579 -9.7394 -30.8082 -0.1652 2.6187 -7.2188 2.7733 -0.3059 16.9494 2.8750 0.4152 0.2128 1.4369 0.1467 -9.3138 -1.7590 -3.7057 -20.1662 1.9033 -4.8240 11.7009 0.3421 -2.2196 6.9449 -0.0000 0.0000 0.0000 -86.0664 18.5614 45.7347 115.8989 -57.3073 -82.2264 -0.0000 0.0000 -32.0292 26.1494 3.2184 1.5789 -7.1250 0.0000 -0.0000 -0.3771 33.5641 0.1057 -0.0000 0.0000 0.0000 87.8724 -4.8385 43.5718 -113.9681 57.7140 -80.5977 0.0000 -0.0000 -20.5180 -23.2623 33.8458 -13.4649 7.1250 -0.0000 -0.0000 5.0858 6.0204 5.6123
0.1758 16.9330 11.8907 -3.5526 1.0527 2.9810 0.0000 0.0000 0.0000 -11.9749 -8.9810 -30.4026 22.5015 19.8493 97.3316 -0.0781 -5.9337 5.6500 0.1263 -2.2912 -6.3111 0.0000 0.0000 0.0000 33.2086 7.9182 -16.5869 -7.7209 -15.9101 51.5509 -1.9923 -9.0876 -31.2066 -0.1562 2.5464 -7.0182 3.0313 -0.0867 16.8059 2.8295 0.7519 0.0442 1.1596 0.2933 -9.4164 -1.7357 -3.8156 -19.6120 1.9066 -4.9864 11.5977 0.3306 -2.3019 6.8230 -0.0000 -0.0000 0.0000 -85.6177 19.6650 46.3390 116.3041 -57.2170 -82.5672 -0.0000 0.0000 -32.3318 26.1349 3.2362 1.5866 -7.1250 0.0000 -0.0000 -0.3893 33.5833 0.1090 -0.0000 -0.0000 0.0000 87.7716 -3.7752 43.6249 -114.8747 57.5278 -81.3634 0.0000 -0.0000 -21.0534 -23.4386 34.3019 -13.7296 7.1250 -0.0000 -0.0000 5.0670 6.5252 5.6310
0.1740 16.9738 12.3525 -3.9862 0.9160 3.1061 0.0000 0.0000 0.0000 -11.0920 -9.1341 -32.6858 22.3156 19.8709 96.7845 -0.0899 -5.8001 4.6051 0.0009 -0.1913 -0.5257 0.0000 0.0000 0.0000 34.0045 7.6070 -14.4106 -7.4394 -15.6910 50.5173 -1.9604 -8.8146 -30.8330 -0.2151 2.9856 -8.2387 3.4194 0.2479 16.5176 2.9042 1.2674 -0.0714 0.8958 0.5233 -9.3740 -1.7526 -3.9412 -19.3562 1.8327 -5.1491 11.8145 0.2927 -2.3881 6.8530 0.0000 0.0000 0.0000 -85.1982 20.6942 46.9416 116.5408 -57.1634 -82.7662 -0.0000 0.0000 -32.5396 26.0564 3.1353 1.5319 -7.1250 0.0000 -0.0000 -0.4507 33.4687 0.1274 0.0000 0.0000 0.0000 87.8457 -3.1955 43.3789 -116.3365 57.2097 -82.5944 0.0000 -0.0000 -21.3490 -22.8650 34.9600 -13.5842 7.1250 -0.0000 -0.0000 5.4932 7.0588 6.1533
0.1711 17.0351 12.8186 -4.6082 0.5382 3.1898 0.0000 0.0000 0.0000 -10.0514 -8.9338 -34.8066 21.9583 19.9078 95.7341 -0.1005 -5.7707 3.5365 0.0242 1.0046 2.7614 0.0000 0.0000 0.0000 35.0073 7.4987 -11.9955 -7.1328 -15.4427 49.3747 -1.7773 -9.1920 -29.9248 -0.3326 3.7065 -10.2524 3.9807 0.6670 16.1476 3.0152 1.9122 0.0280 0.5467 0.8140 -9.0371 -1.9152 -4.0974 -19.6882 1.9305 -5.3357 12.1889 0.3183 -2.4700 7.0406 0.0000 0.0000 0.0000 -84.7669 21.4659 47.4517 117.0984 -57.0348 -83.2343 -0.0000 0.0000 -32.6543 25.7513 3.1297 1.5086 -7.1250 0.0000 -0.0000 -0.6998 33.4532 0.1981 0.0000 0.0000 0.0000 87.8703 -2.2229 43.2912 -117.5732 56.9227 -83.6324 0.0000 -0.0000 -21.4701 -22.7676 35.1230 -13.5751 7.1250 -0.0000 -0.0000 5.5742 7.2010 6.2569
0.1837 17.1238 13.2819 -4.9015 0.3849 3.5014 0.0000 0.0000 0.0000 -9.6530 -9.1707 -36.6407 21.3805 19.9542 94.0394 -0.0995 -5.6123 2.6486 0.0350 1.2072 3.3191 0.0000 0.0000 0.0000 35.4568 7.1615 -10.0180 -6.8282 -15.1855 48.2216 -1.5099 -9.5090 -28.3706 -0.5681 4.8274 -13.4169 4.4853 1.0123 15.8581 2.9562 2.4457 -0.0942 0.0793 1.0457 -8.9751 -2.0505 -4.2445 -19.7029 2.0759 -5.5292 12.4493 0.3609 -2.5529 7.1405 0.0000 0.0000 0.0000 -84.2370 22.5202 47.9865 117.8647 -56.8526 -83.8766 -0.0000 0.0000 -32.8502 25.2728 2.8650 1.3518 -7.1250 0.0000 -0.0000 -1.0816 33.1460 0.3143 0.0000 0.0000 0.0000 87.8360 -1.1406 43.3427 -118.2883 56.7491 -84.2310 0.0000 -0.0000 -21.4427 -23.4378 35.3389 -14.0769 7.1250 -0.0000 -0.0000 5.2499 7.5769 5.9196
0.2074 17.2276 13.7490 -4.6571 0.5023 3.7851 0.0000 0.0000 0.0000 -10.0897 -9.9166 -37.8275 20.5745 19.9921 91.6799 -0.0992 -5.6628 1.0217 0.0016 -0.2560 -0.7035 0.0000 0.0000 0.0000 35.1325 6.4419 -8.2187 -6.5133 -14.9079 47.0085 -1.2598 -9.1800 -26.3418 -0.8482 5.8741 -16.4196 4.7241 1.2769 15.6144 2.6782 2.8070 -0.2586 -0.4319 1.1996 -8.9806 -2.1338 -4.3899 -19.5893 2.2086 -5.7346 12.6622 0.3925 -2.6418 7.2027 -0.0000 0.0000 0.0000 -83.7317 23.4566 48.4431 118.2833 -56.7503 -84.2268 -0.0000 0.0000 -33.2045 24.2637 2.0592 0.9279 -7.1250 0.0000 -0.0000 -1.8714 32.2346 0.5850 -0.0000 0.0000 0.0000 87.8965 -0.4661 43.0819 -119.3042 56.4925 -85.0794 0.0000 -0.0000 -21.1829 -24.0869 35.7936 -14.6528 7.1250 -0.0000 -0.0000 4.9839 8.1937 5.6633
0.2344 17.3250 14.2222 -4.3429 1.1206 3.9773 0.0000 0.0000 0.0000 -10.6201 -11.0927 -38.8675 19.6600 19.9972 89.0058 -0.0962 -5.9283 -0.2162 0.2066 -2.9264 -8.0738 0.0000 0.0000 0.0000 34.6683 5.3898 -6.5890 -6.2197 -14.6379 45.8571 -1.0419 -8.6599 -24.2468 -1.0301 6.4558 -18.1127 5.0442 1.3621 15.1436 2.4053 2.9160 -0.2034 -0.9145 1.2412 -8.6179 -2.2344 -4.5623 -19.8064 2.3571 -5.9643 12.7497 0.4238 -2.7390 7.2804 0.0000 0.0000 0.0000 -83.4396 23.9907 48.6365 118.5075 -56.6947 -84.4143 -0.0000 0.0000 -33.1025 23.7649 1.8599 0.8188 -7.1250 0.0000 -0.0000 -2.2655 32.0066 0.7209 0.0000 0.0000 0.0000 87.9392 0.3642 42.6388 -120.1751 56.2631 -85.8046 0.0000 -0.0000 -21.1419 -24.3388 36.2892 -14.9876 7.1250 -0.0000 -0.0000 4.9430 8.7571 5.6574
0.2500 17.4417 14.6983 -4.3823 1.9386 4.1271 0.0000 0.0000 0.0000 -10.6153 -12.2732 -40.0812 18.5886 19.9522 85.8702 -0.1198 -6.2929 0.7598 0.3464 -3.7817 -10.4633 0.0000 0.0000 0.0000 34.6633 4.4207 -4.9558 -5.9004 -14.3311 44.5808 -0.8268 -8.0579 -21.9205 -1.0262 6.4442 -18.0787 5.6096 1.3370 14.7974 2.2402 2.9462 -0.2831 -1.4046 1.2309 -8.4709 -2.1126 -4.7113 -19.4568 2.2733 -6.1839 12.4806 0.3612 -2.8527 7.1319 -0.0000 -0.0000 0.0000 -83.1181 24.8633 48.7238 118.9210 -56.5907 -84.7596 -0.0000 0.0000 -32.8503 24.5020 3.5712 1.6261 -7.1250 0.0000 -0.0000 -1.7391 33.8995 0.4737 -0.0000 -0.0000 0.0000 88.0476 1.0063 42.4094 -120.7354 56.1108 -86.2701 0.0000 -0.0000 -21.1767 -24.5246 36.6017 -15.2182 7.1250 -0.0000 -0.0000 4.9046 9.1194 5.6390
0.2529 17.5486 15.1669 -4.3174 2.0933 4.2841 0.0000 0.0000 0.0000 -10.7444 -12.5505 -40.6968 17.5059 19.8502 82.6903 -0.1308 -6.8054 0.0208 0.2780 -3.3912 -9.3700 0.0000 0.0000 0.0000 34.5848 4.1992 -3.2750 -5.6080 -14.0374 43.3875 -0.5830 -7.6900 -19.2290 -1.0562 6.5347 -18.3439 5.7260 1.5462 14.6805 2.0335 3.2330 -0.5609 -1.7516 1.3486 -8.6715 -1.9765 -4.7874 -18.8964 2.2052 -6.3217 12.4367 0.3140 -2.9252 7.0210 -0.0000 0.0000 0.0000 -82.6924 26.1118 48.6714 119.2780 -56.4993 -85.0575 -0.0000 0.0000 -32.6948 26.4365 8.2225 4.0673 -7.1250 0.0000 -0.0000 -0.3708 39.1467 0.0535 -0.0000 0.0000 0.0000 88.3028 0.9336 42.0806 -121.5984 55.8687 -86.9855 0.0000 -0.0000 -20.9774 -24.1771 36.6509 -15.0021 7.1250 -0.0000 -0.0000 5.0983 9.0825 5.8607
0.2546 17.6726 15.6473 -4.1606 2.3781 4.1982 0.0000 0.0000 0.0000 -11.0508 -13.0180 -40.9502 16.2477 19.6590 78.9690 -0.1577 -7.4829 -0.0179 0.2688 -3.3349 -9.2126 0.0000 0.0000 0.0000 34.3983 3.7087 -1.4656 -5.3008 -13.7148 42.1067 -0.3061 -7.5402 -15.8252 -1.0066 6.3840 -17.9027 5.6956 1.6999 14.7033 1.8987 3.4283 -0.6780 -1.9235 1.4348 -8.7920 -2.1564 -4.8170 -18.7292 2.3968 -6.3576 12.6519 0.4010 -2.9327 7.0773 0.0000 -0.0000 0.0000 -82.5074 27.0263 48.4957 119.2944 -56.4950 -85.0712 -0.0000 0.0000 -32.7981 22.7842 1.5586 0.6545 -7.1250 0.0000 -0.0000 -3.0400 31.6611 0.9931 0.0000 -0.0000 0.0000 88.4159 0.9814 41.7174 -122.0574 55.7363 -87.3651 0.0000 -0.0000 -20.6566 -24.0788 36.5500 -14.9025 7.1250 -0.0000 -0.0000 5.1311 8.9563 5.8892
